<?xml version="1.0" encoding="utf-8"?>
<!-- Generator: Adobe Illustrator 18.1.1, SVG Export Plug-In . SVG Version: 6.00 Build 0)  -->
<svg version="1.1" xmlns="http://www.w3.org/2000/svg" xmlns:xlink="http://www.w3.org/1999/xlink" x="0px" y="0px"
	 viewBox="0 0 1024 578" enable-background="new 0 0 1024 578" xml:space="preserve">
<g id="Layer_1">
	<g>
		
			<rect x="3.1" y="44.3" fill="#2B3A42" stroke="#FFFFFF" stroke-width="2" stroke-linejoin="round" stroke-miterlimit="10" width="89.6" height="89.6"/>
		<text transform="matrix(1 0 0 1 29.351 93.3793)" fill="#FFFFFF" font-family='Raleway, Sans-serif' font-size="13.4443">music</text>
	</g>
	<g>
		
			<rect x="3.1" y="444.1" fill="#2B3A42" stroke="#FFFFFF" stroke-width="2" stroke-linejoin="round" stroke-miterlimit="10" width="89.6" height="89.6"/>
		<text transform="matrix(1 0 0 1 33.9697 493.1152)" fill="#FFFFFF" font-family='Raleway, Sans-serif' font-size="13.4443">logo</text>
	</g>
	<g>
		
			<rect x="3.1" y="177.6" fill="#2B3A42" stroke="#FFFFFF" stroke-width="2" stroke-linejoin="round" stroke-miterlimit="10" width="89.6" height="89.6"/>
		<text transform="matrix(1 0 0 1 29.351 226.6245)" fill="#FFFFFF" font-family='Raleway, Sans-serif' font-size="13.4443">image</text>
	</g>
	<g>
		
			<rect x="909.1" y="229.8" fill="#2B3A42" stroke="#FFFFFF" stroke-width="2" stroke-linejoin="round" stroke-miterlimit="10" width="111.8" height="111.8"/>
		<text transform="matrix(1 0 0 1 934.8115 290.6953)" fill="#FFFFFF" font-family='Raleway, Sans-serif' font-size="15.685">youtube</text>
	</g>
	<g>
		
			<rect x="3.1" y="310.8" fill="#2B3A42" stroke="#FFFFFF" stroke-width="2" stroke-linejoin="round" stroke-miterlimit="10" width="89.6" height="89.6"/>
		<text transform="matrix(1 0 0 1 13.2988 359.8701)" fill="#FFFFFF" font-family='Raleway, Sans-serif' font-size="13.4443">description</text>
	</g>
	<g>
		<path fill="none" stroke="#FFFFFF" stroke-width="4" stroke-linejoin="round" stroke-miterlimit="10" d="M314.6,289
			c-61.3,0-110.9,44.7-110.9,99.9"/>
		<path fill="none" stroke="#FFFFFF" stroke-width="4" stroke-linejoin="round" stroke-miterlimit="10" d="M203.7,388.9
			c0,55.2-49.6,99.9-110.9,99.9"/>
	</g>
	<g>
		<path fill="none" stroke="#FFFFFF" stroke-width="4" stroke-linejoin="round" stroke-miterlimit="10" d="M314.6,288.9
			c-61.3,0-110.9-44.7-110.9-99.9"/>
		<path fill="none" stroke="#FFFFFF" stroke-width="4" stroke-linejoin="round" stroke-miterlimit="10" d="M203.7,189
			c0-55.2-49.6-99.9-110.9-99.9"/>
	</g>
	<g>
		<path fill="none" stroke="#FFFFFF" stroke-width="4" stroke-linejoin="round" stroke-miterlimit="10" d="M167.5,287.9
			c-20.4,0-37-14.9-37-33.3"/>
		<path fill="none" stroke="#FFFFFF" stroke-width="4" stroke-linejoin="round" stroke-miterlimit="10" d="M130.5,254.6
			c0-18.4-16.5-33.3-37-33.3"/>
	</g>
	<g>
		<path fill="none" stroke="#FFFFFF" stroke-width="4" stroke-linejoin="round" stroke-miterlimit="10" d="M94.5,355.6
			c20.4-0.3,36.8-15.4,36.5-33.9"/>
		<path fill="none" stroke="#FFFFFF" stroke-width="4" stroke-linejoin="round" stroke-miterlimit="10" d="M131,321.8
			c-0.3-18.4,16.1-33.6,36.5-33.9"/>
	</g>
	
		<line fill="none" stroke="#FFFFFF" stroke-width="4" stroke-linejoin="round" stroke-miterlimit="10" x1="314.6" y1="287.9" x2="167.5" y2="287.9"/>
	
		<line fill="none" stroke="#FFFFFF" stroke-width="4" stroke-linejoin="round" stroke-miterlimit="10" x1="687.2" y1="287.9" x2="909.1" y2="287.9"/>
</g>
</svg>
